<?xml version="1.0" standalone="no"?>
<!DOCTYPE svg PUBLIC "-//W3C//DTD SVG 20010904//EN"
 "http://www.w3.org/TR/2001/REC-SVG-20010904/DTD/svg10.dtd">
<svg version="1.0" xmlns="http://www.w3.org/2000/svg"
 width="700.000000pt" height="700.000000pt" viewBox="0 0 700.000000 700.000000"
 preserveAspectRatio="xMidYMid meet">
<metadata>
Created by potrace 1.14, written by Peter Selinger 2001-2017
</metadata>
<g transform="translate(0.000000,700.000000) scale(0.100000,-0.100000)"
fill="#000000" stroke="none">
<path d="M3417 6743 c-1 0 -52 -4 -114 -7 -107 -7 -134 -9 -232 -21 -81 -11
-215 -36 -301 -56 -47 -11 -96 -23 -110 -25 -50 -10 -318 -103 -415 -144 -391
-165 -722 -388 -1025 -690 -217 -215 -365 -404 -512 -652 -221 -374 -359 -772
-422 -1218 -4 -32 -8 -73 -21 -210 -5 -57 -6 -382 -1 -435 3 -22 7 -71 11
-110 10 -106 13 -128 24 -192 6 -32 13 -73 16 -91 30 -177 119 -468 207 -672
49 -114 149 -312 191 -375 l21 -32 79 96 c95 116 120 147 227 276 45 55 108
131 139 169 31 38 82 101 115 140 32 39 73 89 91 111 18 22 129 157 246 300
118 143 263 321 324 395 60 74 117 144 127 155 9 11 119 146 244 300 125 154
231 282 235 285 15 10 42 188 41 275 0 101 -16 160 -81 296 -163 340 -340 538
-652 730 -55 34 -99 64 -99 68 0 25 224 37 310 17 14 -4 40 -9 59 -12 64 -11
180 -42 286 -76 l70 -23 85 53 c388 244 833 326 1332 247 76 -12 272 -63 338
-88 346 -131 587 -350 739 -672 55 -117 57 -123 72 -170 6 -22 15 -49 20 -60
9 -22 29 -96 36 -134 2 -13 15 -67 28 -120 13 -53 42 -188 65 -301 50 -249 90
-417 131 -558 17 -59 33 -115 34 -125 2 -9 11 -44 19 -78 9 -33 18 -75 21 -92
3 -18 8 -40 11 -49 12 -41 60 -318 69 -403 4 -33 8 -70 10 -83 29 -184 23
-674 -10 -892 -34 -226 -78 -417 -140 -605 -47 -143 -67 -192 -148 -367 -25
-54 -44 -98 -41 -98 9 0 173 109 250 166 184 136 417 352 539 499 28 33 56 67
64 75 44 47 261 360 261 377 0 4 6 14 14 22 8 9 43 72 79 141 188 362 304 745
351 1160 14 120 16 623 3 676 -3 12 -8 45 -12 75 -8 68 -23 161 -35 219 -5 25
-12 56 -14 70 -10 64 -73 278 -118 405 -60 168 -201 458 -295 609 -68 108
-231 330 -300 409 -95 108 -340 341 -443 421 -231 180 -512 348 -730 436 -30
12 -73 30 -95 40 -44 19 -257 89 -345 113 -150 41 -361 79 -510 93 -129 11
-407 23 -413 17z"/>
<path d="M3450 5039 c-55 -10 -84 -25 -119 -59 -41 -42 -61 -91 -61 -151 0
-60 10 -87 52 -134 129 -148 367 -58 368 138 0 124 -122 229 -240 206z"/>
<path d="M4515 2062 c-16 -16 -61 -55 -100 -87 -38 -32 -72 -61 -75 -65 -3 -3
-50 -43 -105 -90 -55 -47 -107 -92 -116 -100 -8 -8 -44 -40 -80 -70 -85 -73
-136 -118 -183 -160 -59 -52 -78 -69 -152 -135 -37 -33 -75 -67 -84 -75 -9 -8
-47 -42 -85 -75 -38 -33 -78 -69 -90 -80 -25 -24 -180 -165 -215 -195 -14 -12
-61 -54 -104 -93 -44 -40 -87 -79 -97 -88 -16 -14 -71 -64 -232 -212 -17 -16
-62 -56 -99 -90 -38 -33 -65 -64 -61 -68 16 -14 284 -72 398 -85 27 -4 54 -9
58 -11 9 -5 79 64 232 232 50 54 99 107 110 119 11 12 33 37 49 56 16 19 49
58 75 86 157 174 428 508 620 768 137 184 382 546 369 546 -2 0 -16 -13 -33
-28z"/>
</g>
</svg>
