<svg id="グループ_32" data-name="グループ 32" xmlns="http://www.w3.org/2000/svg" xmlns:xlink="http://www.w3.org/1999/xlink" width="166.563" height="72.165" viewBox="0 0 166.563 72.165">
  <defs>
    <clipPath id="clip-path">
      <rect id="長方形_37" data-name="長方形 37" width="166.563" height="72.165"/>
    </clipPath>
  </defs>
  <g id="グループ_31" data-name="グループ 31" clip-path="url(#clip-path)">
    <path id="パス_10" data-name="パス 10" d="M86.728,22.5c-.539-1.766-1.127-5.3-1.512-6.644h-.008c-1.539-7.382-6.965-8.8-10.1-9.246a14.866,14.866,0,0,0-10.793,2.4c-1.445-.491-4.548-1.409-5.867-.744l1.6.992a10.062,10.062,0,0,1,4.865,6.163C66.4,22.544,52.622,38.854,43.227,43.279c-8.039,3.786-25.465,4.958-35.768,5.5-3.468.182-5.723.255-5.723.255a64.16,64.16,0,0,0,11,2.968C25,53.911,32,52.319,32,52.319c-7.866,3.435-32,8.12-32,8.12A79.491,79.491,0,0,0,23.718,61.91L42.323,47.491,14.19,77l2.838-1.073c34.726-12.008,36.153-18.671,63.625-41.82,0,0-10.343,17.34-33.082,31.268a57.038,57.038,0,0,0,11.224-2l2.284,3.5,4.09,4.115a15.438,15.438,0,0,0-6.114,1.936H76.091a16.092,16.092,0,0,0-6.881-2.008L66.574,60.65C80.255,54.787,93,43.021,86.728,22.5M72.14,14.432a1.654,1.654,0,1,1,1.654-1.654,1.654,1.654,0,0,1-1.654,1.654M67.955,70.854c-.39-.007-.781,0-1.171.01l-4.193-5.089-.845-3.3q1.22-.4,2.45-.867Z" transform="translate(0 -4.835)"/>
    <path id="パス_11" data-name="パス 11" d="M396.787,16.811a4.466,4.466,0,0,1-1.224-3.266v-.656a.223.223,0,0,1,.252-.252h1.866a.223.223,0,0,1,.252.252v.53a2.8,2.8,0,0,0,.58,1.854,1.852,1.852,0,0,0,1.488.694,1.92,1.92,0,0,0,1.5-.668,2.545,2.545,0,0,0,.593-1.753,2.561,2.561,0,0,0-.316-1.286,3.754,3.754,0,0,0-.832-1q-.517-.441-1.678-1.3a24.735,24.735,0,0,1-2.017-1.64,6.077,6.077,0,0,1-1.236-1.639,4.75,4.75,0,0,1-.5-2.245A4.353,4.353,0,0,1,396.724,1.2a4.736,4.736,0,0,1,6.394.088,4.7,4.7,0,0,1,1.224,3.38V5.3a.223.223,0,0,1-.252.252h-1.867a.223.223,0,0,1-.252-.252V4.616a2.757,2.757,0,0,0-.58-1.829,1.88,1.88,0,0,0-1.513-.694,1.843,1.843,0,0,0-1.438.618,2.5,2.5,0,0,0-.555,1.728,2.638,2.638,0,0,0,.555,1.7A11.966,11.966,0,0,0,400.583,8q1.513,1.135,2.283,1.841a5.271,5.271,0,0,1,1.186,1.551,4.494,4.494,0,0,1,.416,2.005,4.665,4.665,0,0,1-1.236,3.392,4.746,4.746,0,0,1-6.444.025" transform="translate(-297.334)"/>
    <path id="パス_12" data-name="パス 12" d="M439.972,32.83l-2.7-12.334v-.05a.2.2,0,0,1,.227-.227h1.841a.241.241,0,0,1,.278.227l1.564,8.7c.016.034.034.05.05.05s.034-.017.05-.05l1.589-8.7a.259.259,0,0,1,.278-.227h1.665a.241.241,0,0,1,.277.227l1.639,8.7c.017.034.033.05.05.05s.034-.017.051-.05l1.589-8.7a.259.259,0,0,1,.278-.227l1.816.025a.212.212,0,0,1,.227.278L448.018,32.83a.241.241,0,0,1-.278.227h-1.892a.259.259,0,0,1-.277-.227l-1.589-8.273c-.017-.034-.034-.05-.05-.05s-.034.017-.05.05l-1.539,8.273a.241.241,0,0,1-.277.227h-1.816a.259.259,0,0,1-.277-.227" transform="translate(-328.728 -15.2)"/>
    <path id="パス_13" data-name="パス 13" d="M502.59,20.567a4.1,4.1,0,0,1,1.173,3.052v8.575a.223.223,0,0,1-.252.252h-1.917a.223.223,0,0,1-.252-.252V31.64a.085.085,0,0,0-.038-.076q-.038-.025-.088.025a3.19,3.19,0,0,1-2.6,1.059,4.12,4.12,0,0,1-2.535-.82,3.418,3.418,0,0,1-1.1-2.913A3.805,3.805,0,0,1,496.31,25.7a5.523,5.523,0,0,1,3.468-1.021h1.463a.089.089,0,0,0,.1-.1v-.731a2.681,2.681,0,0,0-.5-1.7,1.59,1.59,0,0,0-1.311-.643,1.439,1.439,0,0,0-1.059.429,1.8,1.8,0,0,0-.5,1.11.223.223,0,0,1-.252.252h-2.043a.223.223,0,0,1-.252-.252,3.72,3.72,0,0,1,1.286-2.623,4.226,4.226,0,0,1,2.875-1.009,4.1,4.1,0,0,1,3.014,1.16m-1.9,9.408a1.935,1.935,0,0,0,.656-1.564V26.7a.089.089,0,0,0-.1-.1H499.7a2.329,2.329,0,0,0-1.614.542,2.007,2.007,0,0,0-.605,1.576,1.849,1.849,0,0,0,.454,1.362,1.636,1.636,0,0,0,1.211.454,2.308,2.308,0,0,0,1.539-.555" transform="translate(-372.114 -14.59)"/>
    <path id="パス_14" data-name="パス 14" d="M539.59,18.216V1.065a.223.223,0,0,1,.252-.252h1.917a.223.223,0,0,1,.252.252V18.216a.223.223,0,0,1-.252.252h-1.917a.223.223,0,0,1-.252-.252" transform="translate(-405.646 -0.611)"/>
    <path id="パス_15" data-name="パス 15" d="M559,18.216V1.065a.223.223,0,0,1,.252-.252h1.917a.223.223,0,0,1,.253.252V18.216a.223.223,0,0,1-.253.252h-1.917a.223.223,0,0,1-.252-.252" transform="translate(-420.235 -0.611)"/>
    <path id="パス_16" data-name="パス 16" d="M579.042,31.552a3.842,3.842,0,0,1-1.148-2.913V23.418a3.831,3.831,0,0,1,1.16-2.9,4.927,4.927,0,0,1,6.23,0,3.832,3.832,0,0,1,1.16,2.9v5.221a3.822,3.822,0,0,1-1.16,2.913,4.366,4.366,0,0,1-3.128,1.1,4.32,4.32,0,0,1-3.115-1.1m4.452-1.589a2.11,2.11,0,0,0,.53-1.5V23.569a2.121,2.121,0,0,0-.53-1.488,1.732,1.732,0,0,0-1.337-.58,1.694,1.694,0,0,0-1.324.58,2.154,2.154,0,0,0-.517,1.488v4.893a2.142,2.142,0,0,0,.517,1.5,1.711,1.711,0,0,0,1.324.567,1.75,1.75,0,0,0,1.337-.567" transform="translate(-434.442 -14.59)"/>
    <path id="パス_17" data-name="パス 17" d="M619.407,32.83l-2.7-12.334v-.05a.2.2,0,0,1,.227-.227h1.841a.241.241,0,0,1,.277.227l1.564,8.7c.016.034.034.05.05.05s.034-.017.051-.05l1.589-8.7a.259.259,0,0,1,.277-.227h1.665a.241.241,0,0,1,.277.227l1.639,8.7c.017.034.034.05.051.05s.033-.017.05-.05l1.589-8.7a.259.259,0,0,1,.278-.227l1.816.025a.213.213,0,0,1,.227.278L627.453,32.83a.241.241,0,0,1-.278.227h-1.891a.259.259,0,0,1-.278-.227l-1.589-8.273c-.017-.034-.034-.05-.05-.05s-.034.017-.05.05l-1.539,8.273a.241.241,0,0,1-.277.227h-1.816a.259.259,0,0,1-.277-.227" transform="translate(-463.621 -15.2)"/>
    <path id="パス_18" data-name="パス 18" d="M398.155,122.761V105.61a.223.223,0,0,1,.252-.252h4.137a4.4,4.4,0,0,1,3.329,1.286,4.815,4.815,0,0,1,1.236,3.481v8.122a4.814,4.814,0,0,1-1.236,3.48,4.4,4.4,0,0,1-3.329,1.287h-4.137a.223.223,0,0,1-.252-.252m2.522-1.841,1.841-.025a1.854,1.854,0,0,0,1.539-.744,3.335,3.335,0,0,0,.605-2.03v-7.869a3.279,3.279,0,0,0-.58-2.043,1.869,1.869,0,0,0-1.564-.757h-1.841a.089.089,0,0,0-.1.1v13.267a.089.089,0,0,0,.1.1" transform="translate(-299.32 -79.205)"/>
    <path id="パス_19" data-name="パス 19" d="M450.068,131.569h-5.7a.089.089,0,0,0-.1.1v1.362a2.185,2.185,0,0,0,.5,1.488,1.655,1.655,0,0,0,1.312.58,1.714,1.714,0,0,0,1.186-.429,1.91,1.91,0,0,0,.605-1.11.277.277,0,0,1,.277-.2l1.867.1a.232.232,0,0,1,.189.075.191.191,0,0,1,.038.177,3.757,3.757,0,0,1-1.248,2.56,5,5,0,0,1-6-.164,3.8,3.8,0,0,1-1.148-2.9v-5.246a3.852,3.852,0,0,1,1.148-2.9,4.873,4.873,0,0,1,6.192,0,3.875,3.875,0,0,1,1.135,2.9v3.355a.223.223,0,0,1-.252.252m-5.3-4.944a2.187,2.187,0,0,0-.5,1.488v1.337a.089.089,0,0,0,.1.1h3.455a.089.089,0,0,0,.1-.1v-1.337a2.187,2.187,0,0,0-.5-1.488,1.685,1.685,0,0,0-1.337-.58,1.657,1.657,0,0,0-1.312.58" transform="translate(-332.165 -93.183)"/>
    <path id="パス_20" data-name="パス 20" d="M484.5,136.452a3.074,3.074,0,0,1-1.1-2.484v-.227a.223.223,0,0,1,.252-.252h1.791a.223.223,0,0,1,.252.252v.177a1.47,1.47,0,0,0,.53,1.148,1.911,1.911,0,0,0,1.311.467,1.68,1.68,0,0,0,1.223-.454,1.548,1.548,0,0,0,.467-1.16,1.377,1.377,0,0,0-.328-.933,2.4,2.4,0,0,0-.769-.593q-.442-.214-1.349-.593a12.426,12.426,0,0,1-1.627-.832,3.859,3.859,0,0,1-1.148-1.16,3.879,3.879,0,0,1,.567-4.591,4.855,4.855,0,0,1,5.826.025,3.451,3.451,0,0,1,1.072,2.674v.076a.223.223,0,0,1-.252.252h-1.74a.223.223,0,0,1-.252-.252v-.176a1.581,1.581,0,0,0-.479-1.16,1.673,1.673,0,0,0-1.236-.479,1.6,1.6,0,0,0-1.69,1.64,1.307,1.307,0,0,0,.3.883,2.306,2.306,0,0,0,.731.567q.429.214,1.362.618a14.58,14.58,0,0,1,1.715.87,3.968,3.968,0,0,1,1.2,1.173,3.28,3.28,0,0,1,.517,1.892,3.24,3.24,0,0,1-1.122,2.6,5.3,5.3,0,0,1-6.028.038" transform="translate(-363.406 -93.412)"/>
    <path id="パス_21" data-name="パス 21" d="M523.786,106.405a1.709,1.709,0,1,1,1.16.454,1.571,1.571,0,0,1-1.16-.454m-.025,15.058V109.129a.223.223,0,0,1,.252-.252h1.917a.223.223,0,0,1,.253.252v12.334a.223.223,0,0,1-.253.252h-1.917a.223.223,0,0,1-.252-.252" transform="translate(-393.424 -77.906)"/>
    <path id="パス_22" data-name="パス 22" d="M551.356,124.154h1.917a.223.223,0,0,1,.252.252v12.208a6.223,6.223,0,0,1-1.211,4.1q-1.21,1.45-4.161,1.45l-.681-.025a.25.25,0,0,1-.252-.278v-1.614q0-.252.277-.252a3.453,3.453,0,0,0,2.838-.82,4.213,4.213,0,0,0,.769-2.787v-.53a.058.058,0,0,0-.038-.063c-.025-.008-.055,0-.088.038a2.861,2.861,0,0,1-2.447,1.16,3.147,3.147,0,0,1-2.56-1.072,4.4,4.4,0,0,1-.9-2.913v-5.045a4.4,4.4,0,0,1,.908-2.938,3.157,3.157,0,0,1,2.547-1.072,2.782,2.782,0,0,1,2.447,1.16c.033.034.063.042.088.025a.084.084,0,0,0,.038-.075v-.656a.223.223,0,0,1,.252-.252m-.744,10.177a2.172,2.172,0,0,0,.492-1.476v-4.742a2.222,2.222,0,0,0-.492-1.488,1.62,1.62,0,0,0-1.3-.58,1.657,1.657,0,0,0-1.312.58,2.186,2.186,0,0,0-.5,1.488v4.742a2.137,2.137,0,0,0,.5,1.476,1.673,1.673,0,0,0,1.312.567,1.635,1.635,0,0,0,1.3-.567" transform="translate(-409.77 -93.183)"/>
    <path id="パス_23" data-name="パス 23" d="M596.522,125.126a4.808,4.808,0,0,1,.845,3.039v8.651a.223.223,0,0,1-.252.252H595.2a.223.223,0,0,1-.253-.252v-8.45a2.6,2.6,0,0,0-.454-1.639,1.512,1.512,0,0,0-1.261-.58,1.588,1.588,0,0,0-1.3.567,2.667,2.667,0,0,0-.517,1.6c0,.1-.009.151-.025.151v8.349a.223.223,0,0,1-.252.252H589.22a.223.223,0,0,1-.252-.252V124.483a.223.223,0,0,1,.252-.252h1.917a.223.223,0,0,1,.252.252v.681a.059.059,0,0,0,.05.063c.034.009.067-.013.1-.063a3.107,3.107,0,0,1,2.547-1.11,2.917,2.917,0,0,1,2.434,1.072" transform="translate(-442.767 -93.26)"/>
    <path id="パス_24" data-name="パス 24" d="M396.787,225.9a4.466,4.466,0,0,1-1.224-3.266v-.656a.223.223,0,0,1,.252-.252h1.866a.223.223,0,0,1,.252.252v.53a2.8,2.8,0,0,0,.58,1.854,1.852,1.852,0,0,0,1.488.694,1.92,1.92,0,0,0,1.5-.668,2.843,2.843,0,0,0,.277-3.039,3.754,3.754,0,0,0-.832-1q-.517-.441-1.678-1.3a24.74,24.74,0,0,1-2.017-1.64,6.077,6.077,0,0,1-1.236-1.639,4.75,4.75,0,0,1-.5-2.245,4.353,4.353,0,0,1,1.211-3.241,4.736,4.736,0,0,1,6.394.088,4.7,4.7,0,0,1,1.224,3.38v.631a.223.223,0,0,1-.252.252h-1.867a.223.223,0,0,1-.252-.252v-.681a2.757,2.757,0,0,0-.58-1.829,1.88,1.88,0,0,0-1.513-.694,1.843,1.843,0,0,0-1.438.618,2.5,2.5,0,0,0-.555,1.728,2.638,2.638,0,0,0,.555,1.7,11.965,11.965,0,0,0,2.144,1.854q1.513,1.135,2.283,1.841a5.271,5.271,0,0,1,1.186,1.551,4.494,4.494,0,0,1,.416,2.005,4.665,4.665,0,0,1-1.236,3.392,4.746,4.746,0,0,1-6.444.025" transform="translate(-297.334 -157.187)"/>
    <path id="パス_25" data-name="パス 25" d="M442.822,221.374h-1.765a.089.089,0,0,0-.1.1v7.088a2.108,2.108,0,0,0,.353,1.4,1.359,1.359,0,0,0,1.11.366h.227a.223.223,0,0,1,.252.252v1.614a.223.223,0,0,1-.252.252h-.782a3.948,3.948,0,0,1-2.434-.63,2.883,2.883,0,0,1-.82-2.4v-7.945a.089.089,0,0,0-.1-.1h-.984a.223.223,0,0,1-.252-.252V219.86a.223.223,0,0,1,.252-.252h.984a.089.089,0,0,0,.1-.1v-2.85a.223.223,0,0,1,.252-.252H440.7a.223.223,0,0,1,.252.252v2.85a.089.089,0,0,0,.1.1h1.765a.223.223,0,0,1,.252.252v1.261a.223.223,0,0,1-.252.252" transform="translate(-328.728 -162.686)"/>
    <path id="パス_26" data-name="パス 26" d="M474.138,229.309h1.917a.223.223,0,0,1,.252.252v12.334a.223.223,0,0,1-.252.252h-1.917a.223.223,0,0,1-.252-.252v-.732c0-.05-.012-.075-.038-.075a.137.137,0,0,0-.088.05,2.659,2.659,0,0,1-2.422,1.186,3.333,3.333,0,0,1-2.447-.921,3.794,3.794,0,0,1-.933-2.812v-9.03a.223.223,0,0,1,.252-.252h1.917a.223.223,0,0,1,.252.252v8.5q0,2.169,1.715,2.169a1.561,1.561,0,0,0,1.324-.618,2.767,2.767,0,0,0,.467-1.7v-8.349a.223.223,0,0,1,.252-.252" transform="translate(-351.796 -172.387)"/>
    <path id="パス_27" data-name="パス 27" d="M515.592,209.9h1.917a.223.223,0,0,1,.252.252v17.151a.223.223,0,0,1-.252.252h-1.917a.223.223,0,0,1-.252-.252v-.4a.085.085,0,0,0-.038-.076c-.025-.017-.055-.008-.088.025a3.2,3.2,0,0,1-1.085.681,3.431,3.431,0,0,1-1.211.227,3.34,3.34,0,0,1-2.636-1.1,4.2,4.2,0,0,1-.971-2.888v-5.246a4.214,4.214,0,0,1,.971-2.938,3.379,3.379,0,0,1,2.636-1.072,3.426,3.426,0,0,1,1.211.227,3.2,3.2,0,0,1,1.085.681c.034.034.063.042.088.025a.084.084,0,0,0,.038-.076v-5.221a.223.223,0,0,1,.252-.252m-.845,15.3a1.991,1.991,0,0,0,.593-1.223V218.3a1.992,1.992,0,0,0-.593-1.223,1.677,1.677,0,0,0-1.2-.467,1.694,1.694,0,0,0-1.324.58,2.152,2.152,0,0,0-.517,1.488V223.6a2.152,2.152,0,0,0,.517,1.488,1.787,1.787,0,0,0,2.522.113" transform="translate(-382.884 -157.798)"/>
    <path id="パス_28" data-name="パス 28" d="M551.323,210.95a1.615,1.615,0,0,1,1.16-2.774,1.615,1.615,0,1,1,0,3.228,1.569,1.569,0,0,1-1.16-.454m-.025,15.058V213.674a.223.223,0,0,1,.252-.252h1.917a.223.223,0,0,1,.252.252v12.334a.223.223,0,0,1-.252.252H551.55a.223.223,0,0,1-.252-.252" transform="translate(-414.125 -156.5)"/>
    <path id="パス_29" data-name="パス 29" d="M571.728,240.641a3.842,3.842,0,0,1-1.148-2.913v-5.221a3.832,3.832,0,0,1,1.16-2.9,4.927,4.927,0,0,1,6.23,0,3.833,3.833,0,0,1,1.16,2.9v5.221a3.822,3.822,0,0,1-1.16,2.913,4.366,4.366,0,0,1-3.128,1.1,4.32,4.32,0,0,1-3.115-1.1m4.452-1.589a2.111,2.111,0,0,0,.53-1.5v-4.893a2.122,2.122,0,0,0-.53-1.488,1.733,1.733,0,0,0-1.337-.58,1.693,1.693,0,0,0-1.324.58,2.154,2.154,0,0,0-.517,1.488v4.893a2.142,2.142,0,0,0,.517,1.5,1.711,1.711,0,0,0,1.324.567,1.751,1.751,0,0,0,1.337-.567" transform="translate(-428.944 -171.777)"/>
  </g>
</svg>
